<svg width="33" height="31" viewBox="0 0 33 31" fill="none" xmlns="http://www.w3.org/2000/svg">
<path d="M26.3098 23.9047C24.3762 23.9047 22.81 25.4709 22.8035 27.4109C22.8035 29.3445 24.3697 30.9107 26.3098 30.9107C28.2434 30.9107 29.8096 29.3445 29.8096 27.4109C29.8096 25.4773 28.2434 23.9047 26.3098 23.9047ZM26.3098 29.5121C25.1496 29.5121 24.2086 28.5711 24.2086 27.4109C24.2086 26.2508 25.1496 25.3097 26.3098 25.3097C27.4699 25.3097 28.4109 26.2508 28.4109 27.4109C28.4109 28.5711 27.4699 29.5121 26.3098 29.5121Z" fill="white"/>
<path d="M12.2977 23.9047C10.3641 23.9047 8.79141 25.4709 8.79141 27.4109C8.79141 29.351 10.3576 30.9107 12.2977 30.9107C14.2313 30.9107 15.7975 29.3445 15.7975 27.4109C15.7975 25.4773 14.2313 23.9047 12.2977 23.9047ZM12.2977 29.5121C11.1375 29.5121 10.1965 28.5711 10.1965 27.4109C10.1965 26.2508 11.1375 25.3097 12.2977 25.3097C13.4578 25.3097 14.3988 26.2508 14.3988 27.4109C14.3988 28.5711 13.4578 29.5121 12.2977 29.5121Z" fill="white"/>
<path d="M31.9107 4.29158H6.70312L5.9748 0.649976C5.91035 0.321265 5.62031 0.0892334 5.2916 0.0892334H1.08926C0.702539 0.0892334 0.386719 0.405054 0.386719 0.791772C0.386719 1.17849 0.702539 1.49431 1.08926 1.49431H4.71797L8.13398 18.5679C8.59805 20.856 10.609 22.506 12.9422 22.5125H29.1135C29.5002 22.5125 29.816 22.1967 29.816 21.8099C29.816 21.4232 29.5002 21.1074 29.1135 21.1074H12.9422C11.782 21.1074 10.7314 20.5338 10.0869 19.6314L30.6023 16.8986C30.9182 16.8599 31.1631 16.6086 31.2082 16.2927L32.6068 5.08435C32.6133 5.05212 32.6133 5.02634 32.6133 4.99412C32.6133 4.60095 32.2975 4.29158 31.9107 4.29158ZM29.8869 15.5773L9.50684 18.2972V18.2908L6.98672 5.69666H31.118L29.8869 15.5773Z" fill="white"/>
<path d="M11.608 16.3185C11.666 16.6537 11.956 16.905 12.2976 16.905C12.3363 16.905 12.375 16.905 12.4137 16.8986C12.7939 16.8342 13.0517 16.4732 12.9873 16.0929L11.5887 7.68825C11.5887 7.67536 11.5887 7.66892 11.5822 7.65602C11.5113 7.27575 11.1439 7.02438 10.7637 7.09528C10.3834 7.16618 10.132 7.53356 10.2029 7.91384L11.608 16.3185Z" fill="white"/>
<path d="M15.1014 15.5644C15.1336 15.9254 15.4365 16.2025 15.7975 16.2025C15.8168 16.2025 15.8426 16.2025 15.8619 16.2025C16.2486 16.1703 16.5322 15.8287 16.4935 15.442L15.791 7.73338C15.7523 7.34666 15.4172 7.06306 15.0305 7.10173C14.6437 7.14041 14.3602 7.47556 14.3988 7.86228L15.1014 15.5644Z" fill="white"/>
<path d="M19.3037 15.5C19.6904 15.5 20.0062 15.1842 20.0062 14.7975V7.79141C20.0062 7.40469 19.6904 7.08887 19.3037 7.08887C18.917 7.08887 18.6012 7.40469 18.6012 7.79141V14.7975C18.6012 15.1842 18.917 15.5 19.3037 15.5Z" fill="white"/>
<path d="M22.7262 14.7975C22.752 14.7975 22.7777 14.8039 22.8035 14.8039C23.158 14.8039 23.4609 14.5332 23.4996 14.1787L24.2021 7.87518C24.2473 7.48847 23.9701 7.14686 23.5834 7.10175C23.2031 7.06307 22.8551 7.34022 22.81 7.7205L22.1074 14.024C22.0688 14.4043 22.3459 14.7523 22.7262 14.7975Z" fill="white"/>
<path d="M26.3098 14.1013C26.632 14.1013 26.9092 13.8822 26.9865 13.5728L28.3852 7.96539C28.4818 7.59157 28.2498 7.21129 27.876 7.11461C27.5022 7.01793 27.1219 7.24996 27.0252 7.62379L25.6266 13.2312C25.6137 13.2828 25.6072 13.3408 25.6072 13.3988C25.6072 13.7855 25.9231 14.0949 26.3098 14.1013Z" fill="white"/>
</svg>
